{
  "accessors": [
    {
      "bufferView": 2,
      "componentType": 5126,
      "count": 165,
      "max": [
        1.004637598991394,
        1.0000003576278687,
        1.0
      ],
      "min": [
        -1.0000003576278687,
        -1.0000005960464478,
        -3.912095308303833
      ],
      "type": "VEC3"
    },
    {
      "bufferView": 2,
      "byteOffset": 1980,
      "componentType": 5126,
      "count": 165,
      "max": [
        0.9842997789382935,
        0.9367156028747559,
        0.7679884433746338
      ],
      "min": [
        -0.9837386012077332,
        -0.9354940056800842,
        -0.6323527097702026
      ],
      "type": "VEC3"
    },
    {
      "bufferView": 1,
      "componentType": 5126,
      "count": 165,
      "max": [
        1.0028607845306396,
        1.0
      ],
      "min": [
        -0.009756077080965042,
        -0.0010079741477966309
      ],
      "type": "VEC2"
    },
    {
      "bufferView": 1,
      "byteOffset": 1320,
      "componentType": 5126,
      "count": 165,
      "max": [
        0.9818586111068726,
        0.9944000840187073
      ],
      "min": [
        0.0010000000474974513,
        0.0010000000474974513
      ],
      "type": "VEC2"
    },
    {
      "bufferView": 0,
      "componentType": 5125,
      "count": 165,
      "type": "SCALAR"
    },
    {
      "bufferView": 2,
      "byteOffset": 3960,
      "componentType": 5126,
      "count": 25,
      "max": [
        0.8446923494338989,
        0.25417110323905945,
        -3.910403251647949
      ],
      "min": [
        0.1331005096435547,
        -0.044366538524627686,
        -4.0390167236328125
      ],
      "type": "VEC3"
    },
    {
      "bufferView": 2,
      "byteOffset": 4260,
      "componentType": 5126,
      "count": 25,
      "max": [
        0.17785882949829102,
        2.03774311557936e-06,
        -0.9840559959411621
      ],
      "min": [
        0.17785674333572388,
        -4.359484137239633e-06,
        -0.9840564727783203
      ],
      "type": "VEC3"
    },
    {
      "bufferView": 1,
      "byteOffset": 2640,
      "componentType": 5126,
      "count": 25,
      "max": [
        1.0,
        1.0
      ],
      "min": [
        0.0,
        0.0
      ],
      "type": "VEC2"
    },
    {
      "bufferView": 1,
      "byteOffset": 2840,
      "componentType": 5126,
      "count": 25,
      "max": [
        0.8686314821243286,
        0.38354504108428955
      ],
      "min": [
        0.7998285293579102,
        0.35467979311943054
      ],
      "type": "VEC2"
    },
    {
      "bufferView": 0,
      "byteOffset": 660,
      "componentType": 5125,
      "count": 96,
      "type": "SCALAR"
    },
    {
      "bufferView": 2,
      "byteOffset": 4560,
      "componentType": 5126,
      "count": 75,
      "max": [
        0.936281681060791,
        0.9314876198768616,
        -0.3657430112361908
      ],
      "min": [
        -0.931775689125061,
        -0.9323787689208984,
        -3.8447556495666504
      ],
      "type": "VEC3"
    },
    {
      "bufferView": 2,
      "byteOffset": 5460,
      "componentType": 5126,
      "count": 75,
      "max": [
        0.5164321660995483,
        0.975725531578064,
        0.9903151988983154
      ],
      "min": [
        -0.8249281048774719,
        -0.9884011745452881,
        0.1518564075231552
      ],
      "type": "VEC3"
    },
    {
      "bufferView": 1,
      "byteOffset": 3040,
      "componentType": 5126,
      "count": 75,
      "max": [
        1.000084400177002,
        1.0023359060287476
      ],
      "min": [
        -8.976459503173828e-05,
        -0.0007339715957641602
      ],
      "type": "VEC2"
    },
    {
      "bufferView": 1,
      "byteOffset": 3640,
      "componentType": 5126,
      "count": 75,
      "max": [
        0.9928233027458191,
        0.9990000128746033
      ],
      "min": [
        0.0010000000474974513,
        0.0010000000474974513
      ],
      "type": "VEC2"
    },
    {
      "bufferView": 0,
      "byteOffset": 1044,
      "componentType": 5125,
      "count": 75,
      "type": "SCALAR"
    }
  ],
  "asset": {
    "extras": {
      "author": "OmegaRedZA (https://sketchfab.com/OmegaRedZA)",
      "license": "CC-BY-4.0 (http://creativecommons.org/licenses/by/4.0/)",
      "source": "https://sketchfab.com/3d-models/game-ready-uhd-curved-tv-dbd3002920dd4ac38a52808aef778acc",
      "title": "Game Ready UHD Curved TV"
    },
    "generator": "Sketchfab-12.67.0",
    "version": "2.0"
  },
  "bufferViews": [
    {
      "buffer": 0,
      "byteLength": 1344,
      "name": "floatBufferViews",
      "target": 34963
    },
    {
      "buffer": 0,
      "byteLength": 4240,
      "byteOffset": 1344,
      "byteStride": 8,
      "name": "floatBufferViews",
      "target": 34962
    },
    {
      "buffer": 0,
      "byteLength": 6360,
      "byteOffset": 5584,
      "byteStride": 12,
      "name": "floatBufferViews",
      "target": 34962
    }
  ],
  "buffers": [
    {
      "byteLength": 11944,
      "uri": "scene.bin"
    }
  ],
  "extensionsUsed": [
    "KHR_materials_clearcoat"
  ],
  "images": [
    {
      "uri": "textures/default_baseColor.jpeg"
    },
    {
      "uri": "textures/02_-_Default_baseColor.jpeg"
    }
  ],
  "materials": [
    {
      "doubleSided": true,
      "extensions": {
        "KHR_materials_clearcoat": {
          "clearcoatFactor": 1.0,
          "clearcoatRoughnessFactor": 0.04
        }
      },
      "name": "03_-_Default",
      "pbrMetallicRoughness": {
        "baseColorFactor": [
          0.0,
          0.0,
          0.0,
          1.0
        ],
        "metallicFactor": 0.5063644212587175,
        "roughnessFactor": 0.0
      }
    },
    {
      "doubleSided": true,
      "name": "default",
      "pbrMetallicRoughness": {
        "baseColorTexture": {
          "index": 0
        },
        "metallicFactor": 0.0,
        "roughnessFactor": 0.8929713596497552
      }
    },
    {
      "doubleSided": true,
      "emissiveFactor": [
        1.0,
        1.0,
        1.0
      ],
      "emissiveTexture": {
        "index": 1
      },
      "name": "02_-_Default",
      "pbrMetallicRoughness": {
        "baseColorTexture": {
          "index": 1
        },
        "metallicFactor": 0.0,
        "roughnessFactor": 0.8929713596497552
      }
    }
  ],
  "meshes": [
    {
      "name": "Body_03 - Default_0",
      "primitives": [
        {
          "attributes": {
            "NORMAL": 1,
            "POSITION": 0,
            "TEXCOORD_0": 2,
            "TEXCOORD_1": 3
          },
          "indices": 4,
          "material": 0,
          "mode": 4
        }
      ]
    },
    {
      "name": "Body_default_0",
      "primitives": [
        {
          "attributes": {
            "NORMAL": 6,
            "POSITION": 5,
            "TEXCOORD_0": 7,
            "TEXCOORD_1": 8
          },
          "indices": 9,
          "material": 1,
          "mode": 4
        }
      ]
    },
    {
      "name": "Body_02 - Default_0",
      "primitives": [
        {
          "attributes": {
            "NORMAL": 11,
            "POSITION": 10,
            "TEXCOORD_0": 12,
            "TEXCOORD_1": 13
          },
          "indices": 14,
          "material": 2,
          "mode": 4
        }
      ]
    }
  ],
  "nodes": [
    {
      "children": [
        1
      ],
      "matrix": [
        0.014537015929818153,
        0.0,
        0.0,
        0.0,
        0.0,
        3.2278659589253585e-18,
        -0.014537015929818153,
        0.0,
        0.0,
        0.014537015929818153,
        3.2278659589253585e-18,
        0.0,
        0.0,
        0.0,
        0.0,
        1.0
      ],
      "name": "Sketchfab_model"
    },
    {
      "children": [
        2
      ],
      "matrix": [
        1.0,
        0.0,
        0.0,
        0.0,
        0.0,
        0.0,
        1.0,
        0.0,
        0.0,
        -1.0,
        0.0,
        0.0,
        0.0,
        0.0,
        0.0,
        1.0
      ],
      "name": "be6ae31816024ba09a00ddeefe444dc6.fbx"
    },
    {
      "children": [
        3
      ],
      "name": "RootNode"
    },
    {
      "children": [
        4
      ],
      "matrix": [
        2.5399999618530273,
        0.0,
        0.0,
        0.0,
        0.0,
        5.6399328803925005e-16,
        -2.5399999618530273,
        0.0,
        0.0,
        2.5399999618530273,
        5.6399328803925005e-16,
        0.0,
        -9.752693176269531,
        60.704444885253906,
        2.5317041873931885,
        1.0
      ],
      "name": "Body"
    },
    {
      "children": [
        5,
        6,
        7
      ],
      "matrix": [
        0.10689026993288049,
        5.153129745640091e-07,
        -17.225424047448403,
        0.0,
        9.146464860093885e-07,
        -33.4356880187988,
        -9.945808586533157e-07,
        0.0,
        -0.59101933789813,
        -1.6058474300869113e-08,
        -0.0036674984830257153,
        0.0,
        0.0,
        0.0,
        0.0,
        1.0
      ],
      "name": "Object_4"
    },
    {
      "mesh": 0,
      "name": "Body_03 - Default_0"
    },
    {
      "mesh": 1,
      "name": "Body_default_0"
    },
    {
      "mesh": 2,
      "name": "Body_02 - Default_0"
    }
  ],
  "samplers": [
    {
      "magFilter": 9729,
      "minFilter": 9987,
      "wrapS": 10497,
      "wrapT": 10497
    }
  ],
  "scene": 0,
  "scenes": [
    {
      "name": "Sketchfab_Scene",
      "nodes": [
        0
      ]
    }
  ],
  "textures": [
    {
      "sampler": 0,
      "source": 0
    },
    {
      "sampler": 0,
      "source": 1
    }
  ]
}
