{
  "accessors": [
    {
      "bufferView": 2,
      "componentType": 5126,
      "count": 2244,
      "max": [
        -176.6872100830078,
        155.82049560546875,
        -228.382080078125
      ],
      "min": [
        -204.63433837890625,
        11.205484390258789,
        -264.5882873535156
      ],
      "type": "VEC3"
    },
    {
      "bufferView": 2,
      "byteOffset": 26928,
      "componentType": 5126,
      "count": 2244,
      "max": [
        0.9997636675834656,
        0.9940825700759888,
        0.9995446801185608
      ],
      "min": [
        -0.9995519518852234,
        -0.49048370122909546,
        -0.9999949336051941
      ],
      "type": "VEC3"
    },
    {
      "bufferView": 1,
      "componentType": 5126,
      "count": 2244,
      "max": [
        0.19840222597122192,
        1.6159147024154663
      ],
      "min": [
        -1.525878978725359e-08,
        0.15823407471179962
      ],
      "type": "VEC2"
    },
    {
      "bufferView": 1,
      "byteOffset": 17952,
      "componentType": 5126,
      "count": 2244,
      "max": [
        0.19840222597122192,
        1.6159147024154663
      ],
      "min": [
        -1.525878978725359e-08,
        0.15823407471179962
      ],
      "type": "VEC2"
    },
    {
      "bufferView": 0,
      "componentType": 5125,
      "count": 12267,
      "type": "SCALAR"
    }
  ],
  "asset": {
    "extras": {
      "author": "samsikua (https://sketchfab.com/samsikua)",
      "license": "CC-BY-4.0 (http://creativecommons.org/licenses/by/4.0/)",
      "source": "https://sketchfab.com/3d-models/beautiful-red-dress-3e941bd17bc146c981f8d66300b45989",
      "title": "Beautiful Red Dress"
    },
    "generator": "Sketchfab-13.37.1",
    "version": "2.0"
  },
  "bufferViews": [
    {
      "buffer": 0,
      "byteLength": 49068,
      "name": "floatBufferViews",
      "target": 34963
    },
    {
      "buffer": 0,
      "byteLength": 35904,
      "byteOffset": 49068,
      "byteStride": 8,
      "name": "floatBufferViews",
      "target": 34962
    },
    {
      "buffer": 0,
      "byteLength": 53856,
      "byteOffset": 84972,
      "byteStride": 12,
      "name": "floatBufferViews",
      "target": 34962
    }
  ],
  "buffers": [
    {
      "byteLength": 138828,
      "uri": "scene.bin"
    }
  ],
  "materials": [
    {
      "doubleSided": true,
      "name": "FABRIC_1_FRONT_2767",
      "pbrMetallicRoughness": {
        "baseColorFactor": [
          0.992157,
          0.0,
          0.0,
          1.0
        ],
        "metallicFactor": 0.0,
        "roughnessFactor": 0.9511513055275517
      }
    }
  ],
  "meshes": [
    {
      "name": "RedDress_FABRIC 1_FRONT_2767_0",
      "primitives": [
        {
          "attributes": {
            "NORMAL": 1,
            "POSITION": 0,
            "TEXCOORD_0": 2,
            "TEXCOORD_1": 3
          },
          "indices": 4,
          "material": 0,
          "mode": 4
        }
      ]
    }
  ],
  "nodes": [
    {
      "children": [
        1
      ],
      "matrix": [
        1.0,
        0.0,
        0.0,
        0.0,
        0.0,
        2.220446049250313e-16,
        -1.0,
        0.0,
        0.0,
        1.0,
        2.220446049250313e-16,
        0.0,
        0.0,
        0.0,
        0.0,
        1.0
      ],
      "name": "Sketchfab_model"
    },
    {
      "children": [
        2
      ],
      "matrix": [
        0.009999999776482582,
        0.0,
        0.0,
        0.0,
        0.0,
        0.0,
        0.009999999776482582,
        0.0,
        0.0,
        -0.009999999776482582,
        0.0,
        0.0,
        0.0,
        0.0,
        0.0,
        1.0
      ],
      "name": "d6d6ec0593024b4b9b5ce068693f11f4.fbx"
    },
    {
      "children": [
        3
      ],
      "name": "RootNode"
    },
    {
      "children": [
        4
      ],
      "matrix": [
        1.0000001192092896,
        0.0,
        0.0,
        0.0,
        0.0,
        1.0000001192092762,
        1.6292070436460495e-07,
        0.0,
        0.0,
        -1.6292070436460495e-07,
        1.0000001192092762,
        0.0,
        0.0,
        0.0,
        0.0,
        1.0
      ],
      "name": "RedDress"
    },
    {
      "mesh": 0,
      "name": "RedDress_FABRIC 1_FRONT_2767_0"
    }
  ],
  "scene": 0,
  "scenes": [
    {
      "name": "Sketchfab_Scene",
      "nodes": [
        0
      ]
    }
  ]
}
