{
  "accessors": [
    {
      "bufferView": 2,
      "componentType": 5126,
      "count": 2904,
      "max": [
        29.839181900024414,
        162.78062438964844,
        4.428073406219482
      ],
      "min": [
        -2.5743651390075684,
        139.82810974121094,
        -12.822592735290527
      ],
      "type": "VEC3"
    },
    {
      "bufferView": 2,
      "byteOffset": 34848,
      "componentType": 5126,
      "count": 2904,
      "max": [
        0.9999123811721802,
        0.9955536127090454,
        0.9998480081558228
      ],
      "min": [
        -0.9998611807823181,
        -0.9991961121559143,
        -0.9998488426208496
      ],
      "type": "VEC3"
    },
    {
      "bufferView": 3,
      "componentType": 5126,
      "count": 2904,
      "max": [
        0.9999986290931702,
        0.9999874234199524,
        0.9992087483406067,
        1.0
      ],
      "min": [
        -0.9999938011169434,
        -0.9999990463256836,
        -0.9999659061431885,
        -1.0
      ],
      "type": "VEC4"
    },
    {
      "bufferView": 1,
      "componentType": 5126,
      "count": 2904,
      "max": [
        0.9766977429389954,
        0.1348709762096405
      ],
      "min": [
        0.6336396336555481,
        0.031210938468575478
      ],
      "type": "VEC2"
    },
    {
      "bufferView": 1,
      "byteOffset": 23232,
      "componentType": 5126,
      "count": 2904,
      "max": [
        0.9766977429389954,
        0.1348709762096405
      ],
      "min": [
        0.6336396336555481,
        0.031210938468575478
      ],
      "type": "VEC2"
    },
    {
      "bufferView": 1,
      "byteOffset": 46464,
      "componentType": 5126,
      "count": 2904,
      "max": [
        0.9766977429389954,
        0.1348709762096405
      ],
      "min": [
        0.6336396336555481,
        0.031210938468575478
      ],
      "type": "VEC2"
    },
    {
      "bufferView": 0,
      "componentType": 5125,
      "count": 16032,
      "type": "SCALAR"
    },
    {
      "bufferView": 2,
      "byteOffset": 69696,
      "componentType": 5126,
      "count": 12587,
      "max": [
        19.602819442749023,
        165.90000915527344,
        12.356674194335938
      ],
      "min": [
        -30.026737213134766,
        99.5050277709961,
        -14.72058391571045
      ],
      "type": "VEC3"
    },
    {
      "bufferView": 2,
      "byteOffset": 220740,
      "componentType": 5126,
      "count": 12587,
      "max": [
        0.9999902844429016,
        0.9998376965522766,
        0.9999978542327881
      ],
      "min": [
        -0.9999944567680359,
        -0.9999920725822449,
        -0.9999978542327881
      ],
      "type": "VEC3"
    },
    {
      "bufferView": 3,
      "byteOffset": 46464,
      "componentType": 5126,
      "count": 12587,
      "max": [
        1.0,
        1.0,
        0.9999948143959045,
        1.0
      ],
      "min": [
        -1.0,
        -0.9999999403953552,
        -1.0,
        -1.0
      ],
      "type": "VEC4"
    },
    {
      "bufferView": 1,
      "byteOffset": 69696,
      "componentType": 5126,
      "count": 12587,
      "max": [
        0.9826700687408447,
        0.9885431528091431
      ],
      "min": [
        0.014489258639514446,
        0.03351331874728203
      ],
      "type": "VEC2"
    },
    {
      "bufferView": 1,
      "byteOffset": 170392,
      "componentType": 5126,
      "count": 12587,
      "max": [
        0.9826700687408447,
        0.9885431528091431
      ],
      "min": [
        0.014489258639514446,
        0.03351331874728203
      ],
      "type": "VEC2"
    },
    {
      "bufferView": 1,
      "byteOffset": 271088,
      "componentType": 5126,
      "count": 12587,
      "max": [
        0.9826700687408447,
        0.9885431528091431
      ],
      "min": [
        0.014489258639514446,
        0.03351331874728203
      ],
      "type": "VEC2"
    },
    {
      "bufferView": 0,
      "byteOffset": 64128,
      "componentType": 5125,
      "count": 68868,
      "type": "SCALAR"
    },
    {
      "bufferView": 2,
      "byteOffset": 371784,
      "componentType": 5126,
      "count": 1224,
      "max": [
        10.156270980834961,
        166.17564392089844,
        4.036768913269043
      ],
      "min": [
        -10.295123100280762,
        159.33334350585938,
        -9.228378295898438
      ],
      "type": "VEC3"
    },
    {
      "bufferView": 2,
      "byteOffset": 386472,
      "componentType": 5126,
      "count": 1224,
      "max": [
        0.9987882375717163,
        0.999531090259552,
        0.9999303817749023
      ],
      "min": [
        -0.9969626665115356,
        -0.9990390539169312,
        -0.9992385506629944
      ],
      "type": "VEC3"
    },
    {
      "bufferView": 3,
      "byteOffset": 247856,
      "componentType": 5126,
      "count": 1224,
      "max": [
        1.0,
        0.999991774559021,
        0.9999991655349731,
        1.0
      ],
      "min": [
        -0.9999995827674866,
        -0.999999463558197,
        -0.9999517798423767,
        -1.0
      ],
      "type": "VEC4"
    },
    {
      "bufferView": 1,
      "byteOffset": 371784,
      "componentType": 5126,
      "count": 1224,
      "max": [
        0.677031934261322,
        0.19069629907608032
      ],
      "min": [
        0.2888295352458954,
        0.053559329360723495
      ],
      "type": "VEC2"
    },
    {
      "bufferView": 1,
      "byteOffset": 381576,
      "componentType": 5126,
      "count": 1224,
      "max": [
        0.677031934261322,
        0.19069629907608032
      ],
      "min": [
        0.2888295352458954,
        0.053559329360723495
      ],
      "type": "VEC2"
    },
    {
      "bufferView": 1,
      "byteOffset": 391368,
      "componentType": 5126,
      "count": 1224,
      "max": [
        0.677031934261322,
        0.19069629907608032
      ],
      "min": [
        0.2888295352458954,
        0.053559329360723495
      ],
      "type": "VEC2"
    },
    {
      "bufferView": 0,
      "byteOffset": 339600,
      "componentType": 5125,
      "count": 5124,
      "type": "SCALAR"
    },
    {
      "bufferView": 2,
      "byteOffset": 401160,
      "componentType": 5126,
      "count": 82,
      "max": [
        5.9812092781066895,
        165.17247009277344,
        -8.6575345993042
      ],
      "min": [
        2.889498710632324,
        163.86277770996094,
        -9.11679744720459
      ],
      "type": "VEC3"
    },
    {
      "bufferView": 2,
      "byteOffset": 402144,
      "componentType": 5126,
      "count": 82,
      "max": [
        0.9783940315246582,
        0.9799684882164001,
        0.9972596168518066
      ],
      "min": [
        -0.9880861639976501,
        -0.980320155620575,
        -0.997182309627533
      ],
      "type": "VEC3"
    },
    {
      "bufferView": 3,
      "byteOffset": 267440,
      "componentType": 5126,
      "count": 82,
      "max": [
        0.9996489882469177,
        0.9998435974121094,
        0.9945114850997925,
        1.0
      ],
      "min": [
        -0.9999498128890991,
        -0.9994028210639954,
        -0.9936612844467163,
        -1.0
      ],
      "type": "VEC4"
    },
    {
      "bufferView": 1,
      "byteOffset": 401160,
      "componentType": 5126,
      "count": 82,
      "max": [
        0.976697564125061,
        0.2035757303237915
      ],
      "min": [
        0.7658659815788269,
        0.14923788607120514
      ],
      "type": "VEC2"
    },
    {
      "bufferView": 1,
      "byteOffset": 401816,
      "componentType": 5126,
      "count": 82,
      "max": [
        0.976697564125061,
        0.2035757303237915
      ],
      "min": [
        0.7658659815788269,
        0.14923788607120514
      ],
      "type": "VEC2"
    },
    {
      "bufferView": 1,
      "byteOffset": 402472,
      "componentType": 5126,
      "count": 82,
      "max": [
        0.976697564125061,
        0.2035757303237915
      ],
      "min": [
        0.7658659815788269,
        0.14923788607120514
      ],
      "type": "VEC2"
    },
    {
      "bufferView": 0,
      "byteOffset": 360096,
      "componentType": 5125,
      "count": 240,
      "type": "SCALAR"
    }
  ],
  "asset": {
    "extras": {
      "author": "NairoDraw (https://sketchfab.com/NairoDraw)",
      "license": "CC-BY-4.0 (http://creativecommons.org/licenses/by/4.0/)",
      "source": "https://sketchfab.com/3d-models/tshirt-basic-marvelous-61ac2653467c4ac688a4a05af7844a55",
      "title": "TShirt Basic Marvelous"
    },
    "generator": "Sketchfab-13.43.0",
    "version": "2.0"
  },
  "bufferViews": [
    {
      "buffer": 0,
      "byteLength": 361056,
      "name": "floatBufferViews",
      "target": 34963
    },
    {
      "buffer": 0,
      "byteLength": 403128,
      "byteOffset": 361056,
      "byteStride": 8,
      "name": "floatBufferViews",
      "target": 34962
    },
    {
      "buffer": 0,
      "byteLength": 403128,
      "byteOffset": 764184,
      "byteStride": 12,
      "name": "floatBufferViews",
      "target": 34962
    },
    {
      "buffer": 0,
      "byteLength": 268752,
      "byteOffset": 1167312,
      "byteStride": 16,
      "name": "floatBufferViews",
      "target": 34962
    }
  ],
  "buffers": [
    {
      "byteLength": 1436064,
      "uri": "scene.bin"
    }
  ],
  "images": [
    {
      "uri": "textures/FABRIC_3_FRONT_2108_baseColor.png"
    },
    {
      "uri": "textures/FABRIC_3_FRONT_2108_normal.png"
    }
  ],
  "materials": [
    {
      "doubleSided": true,
      "name": "FABRIC_3_FRONT_2108",
      "normalTexture": {
        "index": 1
      },
      "pbrMetallicRoughness": {
        "baseColorTexture": {
          "index": 0
        },
        "metallicFactor": 0.0,
        "roughnessFactor": 0.98263117
      }
    },
    {
      "doubleSided": true,
      "name": "FABRIC_1_FRONT_2094",
      "normalTexture": {
        "index": 1
      },
      "pbrMetallicRoughness": {
        "baseColorTexture": {
          "index": 0
        },
        "metallicFactor": 0.0,
        "roughnessFactor": 0.98263117
      }
    },
    {
      "doubleSided": true,
      "name": "FABRIC_2_FRONT_2101",
      "normalTexture": {
        "index": 1
      },
      "pbrMetallicRoughness": {
        "baseColorTexture": {
          "index": 0
        },
        "metallicFactor": 0.0,
        "roughnessFactor": 0.98263117
      }
    },
    {
      "doubleSided": true,
      "name": "FABRIC_4_FRONT_381815",
      "normalTexture": {
        "index": 1
      },
      "pbrMetallicRoughness": {
        "baseColorTexture": {
          "index": 0
        },
        "metallicFactor": 0.0,
        "roughnessFactor": 0.98263117
      }
    }
  ],
  "meshes": [
    {
      "name": "TSHIRT_FABRIC 3_FRONT_2108_0",
      "primitives": [
        {
          "attributes": {
            "NORMAL": 1,
            "POSITION": 0,
            "TANGENT": 2,
            "TEXCOORD_0": 3,
            "TEXCOORD_1": 4,
            "TEXCOORD_2": 5
          },
          "indices": 6,
          "material": 0,
          "mode": 4
        }
      ]
    },
    {
      "name": "TSHIRT_FABRIC 1_FRONT_2094_0",
      "primitives": [
        {
          "attributes": {
            "NORMAL": 8,
            "POSITION": 7,
            "TANGENT": 9,
            "TEXCOORD_0": 10,
            "TEXCOORD_1": 11,
            "TEXCOORD_2": 12
          },
          "indices": 13,
          "material": 1,
          "mode": 4
        }
      ]
    },
    {
      "name": "TSHIRT_FABRIC 2_FRONT_2101_0",
      "primitives": [
        {
          "attributes": {
            "NORMAL": 15,
            "POSITION": 14,
            "TANGENT": 16,
            "TEXCOORD_0": 17,
            "TEXCOORD_1": 18,
            "TEXCOORD_2": 19
          },
          "indices": 20,
          "material": 2,
          "mode": 4
        }
      ]
    },
    {
      "name": "TSHIRT_FABRIC 4_FRONT_381815_0",
      "primitives": [
        {
          "attributes": {
            "NORMAL": 22,
            "POSITION": 21,
            "TANGENT": 23,
            "TEXCOORD_0": 24,
            "TEXCOORD_1": 25,
            "TEXCOORD_2": 26
          },
          "indices": 27,
          "material": 3,
          "mode": 4
        }
      ]
    }
  ],
  "nodes": [
    {
      "children": [
        1
      ],
      "matrix": [
        1.0,
        0.0,
        0.0,
        0.0,
        0.0,
        2.220446049250313e-16,
        -1.0,
        0.0,
        0.0,
        1.0,
        2.220446049250313e-16,
        0.0,
        0.0,
        0.0,
        0.0,
        1.0
      ],
      "name": "Sketchfab_model"
    },
    {
      "children": [
        2
      ],
      "matrix": [
        0.0010000000474974513,
        0.0,
        0.0,
        0.0,
        0.0,
        0.0,
        0.0010000000474974513,
        0.0,
        0.0,
        -0.0010000000474974513,
        0.0,
        0.0,
        0.0,
        0.0,
        0.0,
        1.0
      ],
      "name": "TSHIRT.fbx"
    },
    {
      "children": [
        3
      ],
      "name": "RootNode"
    },
    {
      "children": [
        4,
        5,
        6,
        7
      ],
      "matrix": [
        10.0,
        0.0,
        0.0,
        0.0,
        0.0,
        10.0,
        0.0,
        0.0,
        0.0,
        0.0,
        10.0,
        0.0,
        0.0,
        0.0,
        0.0,
        1.0
      ],
      "name": "TSHIRT"
    },
    {
      "mesh": 0,
      "name": "TSHIRT_FABRIC 3_FRONT_2108_0"
    },
    {
      "mesh": 1,
      "name": "TSHIRT_FABRIC 1_FRONT_2094_0"
    },
    {
      "mesh": 2,
      "name": "TSHIRT_FABRIC 2_FRONT_2101_0"
    },
    {
      "mesh": 3,
      "name": "TSHIRT_FABRIC 4_FRONT_381815_0"
    }
  ],
  "samplers": [
    {
      "magFilter": 9729,
      "minFilter": 9987,
      "wrapS": 10497,
      "wrapT": 10497
    }
  ],
  "scene": 0,
  "scenes": [
    {
      "name": "Sketchfab_Scene",
      "nodes": [
        0
      ]
    }
  ],
  "textures": [
    {
      "sampler": 0,
      "source": 0
    },
    {
      "sampler": 0,
      "source": 1
    }
  ]
}
